<svg height="250" viewBox="0 0 300 250" width="300" xmlns="http://www.w3.org/2000/svg"><g fill="#fff"><path d="m48.3 63.3a2.1 2.1 0 0 0 -.7 1.4l-3-.5a4.1 4.1 0 0 1 1.6-3 7.2 7.2 0 0 1 4-1.1 5.7 5.7 0 0 1 3.9 1.2 4.2 4.2 0 0 1 1.3 3.4v6.8c0 .4.1.8.1 1.4h-3.1v-1.6a4.3 4.3 0 0 1 -1.6 1.4 5.6 5.6 0 0 1 -2.3.5 4.4 4.4 0 0 1 -3-1 3.4 3.4 0 0 1 0-5.2 7.6 7.6 0 0 1 3.5-1.1l3.2-.2v-.9a1.8 1.8 0 0 0 -2.1-2 2.6 2.6 0 0 0 -1.8.5zm-.2 7.2a2.2 2.2 0 0 0 1.3.4 3.3 3.3 0 0 0 2.1-.7 2.8 2.8 0 0 0 .7-2.1v-.3h-2.8a2.2 2.2 0 0 0 -1.3.4 1.5 1.5 0 0 0 0 2.2z"/><path d="m58.4 72.9v-12.5h3.1v1.4a3.4 3.4 0 0 1 1.6-1.3 4.5 4.5 0 0 1 2-.4 4.2 4.2 0 0 1 3.2 1.4 5.8 5.8 0 0 1 1.1 3.7v7.7h-3.2v-7.5a3.5 3.5 0 0 0 -.5-1.8 2.1 2.1 0 0 0 -1.6-.6 2.6 2.6 0 0 0 -1.9.8 3.3 3.3 0 0 0 -.6 2.1v7z"/><path d="m73.2 71.3a6.7 6.7 0 0 1 -1.6-4.7 7.3 7.3 0 0 1 1.5-4.7 5.2 5.2 0 0 1 4-1.8 5 5 0 0 1 2.1.5 4.3 4.3 0 0 1 1.7 1.3v-7.5h3.1v18.5h-3.1v-1.5a4.3 4.3 0 0 1 -1.7 1.3 4.9 4.9 0 0 1 -6-1.4zm6.9-7.4a3 3 0 0 0 -2.2-1 2.9 2.9 0 0 0 -2.2 1 4.5 4.5 0 0 0 0 5.4 2.7 2.7 0 0 0 2.2 1.1 2.8 2.8 0 0 0 2.2-1.1 4.5 4.5 0 0 0 0-5.4z"/><path d="m93.4 61.9a6.8 6.8 0 0 1 9.2 0 6.6 6.6 0 0 1 1.8 4.7 6.6 6.6 0 0 1 -1.8 4.8 6.8 6.8 0 0 1 -9.2 0 6.6 6.6 0 0 1 -1.8-4.8 6.6 6.6 0 0 1 1.8-4.7zm6.9 2a2.9 2.9 0 0 0 -2.3-1 3.1 3.1 0 0 0 -2.3 1 4 4 0 0 0 -.9 2.7 4.1 4.1 0 0 0 .9 2.8 3.1 3.1 0 0 0 2.3 1 2.9 2.9 0 0 0 2.3-1 4.1 4.1 0 0 0 .9-2.8 4 4 0 0 0 -.9-2.7z"/><path d="m106.7 72.9v-12.5h3.1v1.4a4 4 0 0 1 1.6-1.3 4.5 4.5 0 0 1 2-.4 4.2 4.2 0 0 1 3.2 1.4 5.8 5.8 0 0 1 1.1 3.7v7.7h-3.2v-7.5a2.7 2.7 0 0 0 -.5-1.8 2.1 2.1 0 0 0 -1.6-.6 2.2 2.2 0 0 0 -1.8.8 2.8 2.8 0 0 0 -.7 2.1v7z"/><path d="m123.8 54.4v18.5h-3.2v-18.5z"/><path d="m125.5 60.4h3.5l3.4 8 3-8h3.4l-7 17.6h-3.5l2.4-5.6z"/><path d="m146.7 71.3a6.7 6.7 0 0 1 -1.6-4.7 7.3 7.3 0 0 1 1.5-4.7 5.2 5.2 0 0 1 4-1.8 4.6 4.6 0 0 1 2.1.5 4.3 4.3 0 0 1 1.7 1.3v-7.5h3.1v18.5h-3.1v-1.5a4.8 4.8 0 0 1 -1.6 1.3 5.4 5.4 0 0 1 -2.2.5 4.8 4.8 0 0 1 -3.9-1.9zm6.9-7.4a2.9 2.9 0 0 0 -4.4 0 4.5 4.5 0 0 0 0 5.4 2.8 2.8 0 0 0 4.4 0 4.5 4.5 0 0 0 0-5.4z"/><path d="m170.6 62a7.2 7.2 0 0 1 1.7 5v.6h-9.2a3.1 3.1 0 0 0 1.1 2.1 3.3 3.3 0 0 0 2.2.8 3.1 3.1 0 0 0 1.7-.4 2.7 2.7 0 0 0 .9-1.2l3.2.6a5.6 5.6 0 0 1 -2.1 2.7 7.3 7.3 0 0 1 -8.5-.8 6.5 6.5 0 0 1 -1.8-4.8 6.6 6.6 0 0 1 1.8-4.7 6.2 6.2 0 0 1 4.6-1.8 5.5 5.5 0 0 1 4.4 1.9zm-6.4 1.5a3.6 3.6 0 0 0 -1.1 1.9h5.9a3.1 3.1 0 0 0 -.9-1.9 2.5 2.5 0 0 0 -1.9-.7 2.9 2.9 0 0 0 -2 .7z"/><path d="m175.3 71.3a7.2 7.2 0 0 1 -1.5-4.7 7.3 7.3 0 0 1 1.5-4.7 4.8 4.8 0 0 1 3.9-1.8 5.4 5.4 0 0 1 2.2.5 4 4 0 0 1 1.6 1.3v-7.5h3.2v18.5h-3.2v-1.5a3.4 3.4 0 0 1 -1.6 1.3 4.6 4.6 0 0 1 -2.1.5 5 5 0 0 1 -4-1.9zm7-7.4a3 3 0 0 0 -2.2-1 3.1 3.1 0 0 0 -2.3 1 5 5 0 0 0 0 5.4 2.8 2.8 0 0 0 2.3 1.1 2.8 2.8 0 0 0 2.2-1.1 5 5 0 0 0 0-5.4z"/><path d="m192.3 57.9a2.2 2.2 0 0 1 -3 0 2 2 0 0 1 -.6-1.4 2.1 2.1 0 1 1 4.2 0 2 2 0 0 1 -.6 1.4zm.1 2.5v12.5h-3.2v-12.5z"/><path d="m204.9 61.3a5.1 5.1 0 0 1 1.9 3.2l-3.1.5a2.8 2.8 0 0 0 -.9-1.6 3.4 3.4 0 0 0 -1.7-.5 3 3 0 0 0 -2.4 1 4.6 4.6 0 0 0 -.8 2.7 4.7 4.7 0 0 0 .8 2.8 3.3 3.3 0 0 0 2.4 1 2.5 2.5 0 0 0 1.7-.6 2.1 2.1 0 0 0 .9-1.5l3.1.5a5.1 5.1 0 0 1 -1.9 3.2 6.4 6.4 0 0 1 -3.8 1.2 6.2 6.2 0 0 1 -4.6-1.8 6.6 6.6 0 0 1 -1.8-4.8 6.6 6.6 0 0 1 1.8-4.7 6.2 6.2 0 0 1 4.6-1.8 6.4 6.4 0 0 1 3.8 1.2z"/><path d="m212.1 63.3a1.5 1.5 0 0 0 -.7 1.4l-3-.5a3.8 3.8 0 0 1 1.6-3 6.7 6.7 0 0 1 3.9-1.1 5.7 5.7 0 0 1 3.9 1.2 4.2 4.2 0 0 1 1.3 3.4v5.6a4.5 4.5 0 0 0 .1 1.2v1.4h-3.1v-1.6a3.6 3.6 0 0 1 -1.6 1.4 5.1 5.1 0 0 1 -2.2.5 4.5 4.5 0 0 1 -3.1-1 3.3 3.3 0 0 1 -1.1-2.6 3.1 3.1 0 0 1 1.2-2.6 6.8 6.8 0 0 1 3.4-1.1l3.3-.2v-.9a1.8 1.8 0 0 0 -.6-1.5 1.9 1.9 0 0 0 -1.6-.5 2.3 2.3 0 0 0 -1.7.5zm-.3 7.2a2.5 2.5 0 0 0 1.3.4 3.3 3.3 0 0 0 2.1-.7 2.9 2.9 0 0 0 .8-2.1v-.3h-2.9a2.2 2.2 0 0 0 -1.3.4 1.5 1.5 0 0 0 0 2.2z"/><path d="m221 60.4h2v-3l1.5-.2 1.7-.2v3.4h3v2.7h-2.9v5.9a1.2 1.2 0 0 0 .4 1 1.8 1.8 0 0 0 1.1.4h.7l.7-.2-.2 2.8-.9.2h-1a3.7 3.7 0 0 1 -2.9-1 4 4 0 0 1 -1.1-2.9v-6.2h-2z"/><path d="m241.5 62a7.2 7.2 0 0 1 1.6 5v.6h-9.2a3.7 3.7 0 0 0 1.2 2.1 3.1 3.1 0 0 0 2.2.8 2.7 2.7 0 0 0 1.6-.4 2.3 2.3 0 0 0 1-1.2l3.2.6a5.2 5.2 0 0 1 -2.2 2.7 6.3 6.3 0 0 1 -3.6 1 6.2 6.2 0 0 1 -6.6-6.6 6.6 6.6 0 0 1 1.8-4.7 6.2 6.2 0 0 1 4.6-1.8 5.6 5.6 0 0 1 4.4 1.9zm-6.4 1.5a3.6 3.6 0 0 0 -1.1 1.9h5.9a4.8 4.8 0 0 0 -.9-1.9 2.6 2.6 0 0 0 -1.9-.7 2.7 2.7 0 0 0 -2 .7z"/><path d="m246.2 71.3a6.7 6.7 0 0 1 -1.6-4.7 6.9 6.9 0 0 1 1.6-4.7 4.8 4.8 0 0 1 3.9-1.8 4.6 4.6 0 0 1 2.1.5 4.3 4.3 0 0 1 1.7 1.3v-7.5h3.2v18.5h-3.2v-1.5a4 4 0 0 1 -1.6 1.3 5.4 5.4 0 0 1 -2.1.5 5 5 0 0 1 -4-1.9zm6.9-7.4a2.9 2.9 0 0 0 -2.2-1 3 3 0 0 0 -2.2 1 4.5 4.5 0 0 0 0 5.4 2.8 2.8 0 0 0 2.2 1.1 2.7 2.7 0 0 0 2.2-1.1 4.5 4.5 0 0 0 0-5.4z"/></g></svg>