<svg height="250" viewBox="0 0 300 250" width="300" xmlns="http://www.w3.org/2000/svg"><g fill="#fff"><path d="m62.2 86.8a7.7 7.7 0 0 1 0 9.4 5.2 5.2 0 0 1 -4 1.8 5.4 5.4 0 0 1 -2.1-.5 4.8 4.8 0 0 1 -1.6-1.3v1.5h-3.1v-18.4h3.1v7.5a5.8 5.8 0 0 1 1.7-1.4 4.6 4.6 0 0 1 2.1-.4 4.8 4.8 0 0 1 3.9 1.8zm-2.5 2a2.6 2.6 0 0 0 -2.2-1 2.7 2.7 0 0 0 -2.2 1 5 5 0 0 0 0 5.4 2.7 2.7 0 0 0 2.2 1 2.6 2.6 0 0 0 2.2-1 4.5 4.5 0 0 0 0-5.4z"/><path d="m70.1 89a3.6 3.6 0 0 0 -.9 2.6v6.1h-3.2v-12.4h3.1v1.6a4 4 0 0 1 1.5-1.4 2.7 2.7 0 0 1 1.8-.5h.7l.3 3h-.9a3.2 3.2 0 0 0 -2.4 1z"/><path d="m76.3 86.8a6.2 6.2 0 0 1 4.6-1.8 6.3 6.3 0 0 1 4.6 1.8 6.4 6.4 0 0 1 1.8 4.7 6.6 6.6 0 0 1 -1.8 4.7 6.3 6.3 0 0 1 -4.6 1.8 6.2 6.2 0 0 1 -4.6-1.8 6.6 6.6 0 0 1 -1.8-4.7 6.4 6.4 0 0 1 1.8-4.7zm6.9 2a2.9 2.9 0 0 0 -2.3-1 2.6 2.6 0 0 0 -2.3 1 4.5 4.5 0 0 0 0 5.4 2.6 2.6 0 0 0 2.3 1 2.9 2.9 0 0 0 2.3-1 4.5 4.5 0 0 0 0-5.4z"/><path d="m92.4 88.2a2.1 2.1 0 0 0 -.7 1.4l-3-.5a4.1 4.1 0 0 1 1.6-3 6 6 0 0 1 3.9-1.1 6.2 6.2 0 0 1 3.9 1.1 4.4 4.4 0 0 1 1.3 3.4v5.6c0 .5.1.9.1 1.2v1.4h-3.1v-1.6a4 4 0 0 1 -1.5 1.4 5.9 5.9 0 0 1 -2.3.5 4.4 4.4 0 0 1 -3-1 3.1 3.1 0 0 1 -1.2-2.6 2.9 2.9 0 0 1 1.2-2.5 6.3 6.3 0 0 1 3.5-1.1l3.2-.2v-1a1.8 1.8 0 0 0 -.6-1.5 2.8 2.8 0 0 0 -3.3.1zm-.2 7.1a1.6 1.6 0 0 0 1.2.4 2.8 2.8 0 0 0 2.1-.7 2.9 2.9 0 0 0 .8-2.1v-.3h-2.8a2.6 2.6 0 0 0 -1.4.5 1.2 1.2 0 0 0 -.4 1 1.2 1.2 0 0 0 .5 1.2z"/><path d="m103.2 96.2a7.4 7.4 0 0 1 -1.6-4.7 6.7 6.7 0 0 1 1.6-4.7 4.8 4.8 0 0 1 3.9-1.8 4.6 4.6 0 0 1 2.1.4 4.6 4.6 0 0 1 1.7 1.4v-7.5h3.1v18.4h-3.1v-1.5a4.8 4.8 0 0 1 -1.6 1.3 4.1 4.1 0 0 1 -2.1.5 5.2 5.2 0 0 1 -4-1.8zm6.9-7.4a2.6 2.6 0 0 0 -2.2-1 2.7 2.7 0 0 0 -2.2 1 4.5 4.5 0 0 0 0 5.4 2.7 2.7 0 0 0 2.2 1 2.6 2.6 0 0 0 2.2-1 4.5 4.5 0 0 0 0-5.4z"/><path d="m126.4 86.2a5 5 0 0 1 2 3.1l-3.1.5a3.8 3.8 0 0 0 -.9-1.5 2.7 2.7 0 0 0 -1.8-.5 2.9 2.9 0 0 0 -2.3 1 5 5 0 0 0 0 5.4 2.9 2.9 0 0 0 2.3 1 2.8 2.8 0 0 0 1.8-.6 2.7 2.7 0 0 0 .9-1.5l3.1.5a5.2 5.2 0 0 1 -2 3.2 6 6 0 0 1 -3.8 1.2 6.1 6.1 0 0 1 -4.5-1.8 6.6 6.6 0 0 1 -1.8-4.7 6.4 6.4 0 0 1 1.8-4.7 6.1 6.1 0 0 1 4.5-1.8 6 6 0 0 1 3.8 1.2z"/><path d="m133.6 88.2a1.7 1.7 0 0 0 -.7 1.4l-3-.5a4.1 4.1 0 0 1 1.6-3 6 6 0 0 1 3.9-1.1 6.2 6.2 0 0 1 3.9 1.1 4.4 4.4 0 0 1 1.3 3.4v5.6a4.1 4.1 0 0 0 .1 1.2v1.4h-3.1v-1.6a3.6 3.6 0 0 1 -1.6 1.4 5.1 5.1 0 0 1 -2.2.5 4 4 0 0 1 -3-1 3.1 3.1 0 0 1 -1.2-2.6 2.9 2.9 0 0 1 1.2-2.5 6.3 6.3 0 0 1 3.5-1.1l3.2-.2v-1a1.8 1.8 0 0 0 -.6-1.5 2.8 2.8 0 0 0 -3.3.1zm-.3 7.1a1.8 1.8 0 0 0 1.3.4 2.8 2.8 0 0 0 2.1-.7 2.9 2.9 0 0 0 .8-2.1v-.3h-2.8a2.6 2.6 0 0 0 -1.4.5 1.2 1.2 0 0 0 -.4 1 1.4 1.4 0 0 0 .4 1.2z"/><path d="m151 85.8a4.3 4.3 0 0 1 1.7 2.4l-2.8.8a2.5 2.5 0 0 0 -.8-1.2 2.1 2.1 0 0 0 -1.4-.4 1.8 1.8 0 0 0 -1.3.4 1.1 1.1 0 0 0 -.5.9 1.2 1.2 0 0 0 .3.9l1.1.4 2.1.3a4.2 4.2 0 0 1 2.6 1.1 3.2 3.2 0 0 1 .9 2.4 3.5 3.5 0 0 1 -1.4 3 5.5 5.5 0 0 1 -3.7 1.2 6.9 6.9 0 0 1 -3.6-.9 4.2 4.2 0 0 1 -1.8-2.5l2.8-.9a2.5 2.5 0 0 0 2.6 1.9 2.1 2.1 0 0 0 1.5-.4 1.1 1.1 0 0 0 .6-1 1 1 0 0 0 -.4-.9 1.7 1.7 0 0 0 -1.2-.4l-2-.3a4.5 4.5 0 0 1 -2.6-1.2 3.6 3.6 0 0 1 -.8-2.4 3.7 3.7 0 0 1 1.3-2.9 5.2 5.2 0 0 1 3.6-1.1 5.7 5.7 0 0 1 3.2.8z"/><path d="m153.9 85.3h2v-3l1.4-.2 1.7-.2v3.4h3v2.7h-3v5.8a1.5 1.5 0 0 0 .4 1 1.6 1.6 0 0 0 1.2.4h.6l.8-.2-.3 2.8-.9.2h-1a3.8 3.8 0 0 1 -2.9-1 3.9 3.9 0 0 1 -1-2.9v-6.1h-2z"/><path d="m179.2 86.2a4.8 4.8 0 0 1 1.9 3.1l-3 .5a3.1 3.1 0 0 0 -1-1.5 2.5 2.5 0 0 0 -1.7-.5 2.8 2.8 0 0 0 -2.3 1 4.5 4.5 0 0 0 0 5.4 2.8 2.8 0 0 0 2.3 1 2.9 2.9 0 0 0 2.7-2.1l3 .5a5.1 5.1 0 0 1 -1.9 3.2 6.7 6.7 0 0 1 -8.4-.6 6.6 6.6 0 0 1 -1.8-4.7 6.4 6.4 0 0 1 1.8-4.7 6.7 6.7 0 0 1 8.4-.6z"/><path d="m184.2 86.8a6.3 6.3 0 0 1 4.6-1.8 6.2 6.2 0 0 1 4.6 1.8 6.4 6.4 0 0 1 1.8 4.7 6.6 6.6 0 0 1 -1.8 4.7 6.2 6.2 0 0 1 -4.6 1.8 6.3 6.3 0 0 1 -4.6-1.8 7 7 0 0 1 -1.7-4.7 6.8 6.8 0 0 1 1.7-4.7zm6.9 2a2.6 2.6 0 0 0 -2.3-1 2.9 2.9 0 0 0 -2.3 1 5 5 0 0 0 0 5.4 2.9 2.9 0 0 0 2.3 1 2.6 2.6 0 0 0 2.3-1 4.5 4.5 0 0 0 0-5.4z"/><path d="m197.4 97.7v-12.4h3.2v1.4a3.7 3.7 0 0 1 1.5-1.3 4.5 4.5 0 0 1 2-.4 3.5 3.5 0 0 1 3.5 2.1 4.9 4.9 0 0 1 1.6-1.6 5.9 5.9 0 0 1 2.3-.5 3.5 3.5 0 0 1 3 1.3 5.2 5.2 0 0 1 1.1 3.6v7.8h-3.2v-7.5a2.2 2.2 0 0 0 -.5-1.7 1.7 1.7 0 0 0 -1.4-.6 2 2 0 0 0 -1.7.8 3.2 3.2 0 0 0 -.7 2v7h-3.2v-7.5c0-.8-.1-1.4-.5-1.7a1.7 1.7 0 0 0 -1.4-.6 2.1 2.1 0 0 0 -1.7.7 2.7 2.7 0 0 0 -.7 2v7.1z"/><path d="m221.6 82.8a2.2 2.2 0 0 1 -3 0 2 2 0 0 1 -.6-1.4 2.1 2.1 0 1 1 4.2 0 2 2 0 0 1 -.6 1.4zm.1 2.5v12.4h-3.2v-12.4z"/><path d="m224.7 97.7v-12.4h3.1v1.4a4 4 0 0 1 1.6-1.3 4.5 4.5 0 0 1 2-.4 3.7 3.7 0 0 1 3.1 1.3 5.7 5.7 0 0 1 1.2 3.7v7.7h-3.2v-7.4a3 3 0 0 0 -.5-1.8 2.1 2.1 0 0 0 -1.6-.6 2.1 2.1 0 0 0 -1.8.7 2.8 2.8 0 0 0 -.7 2.1v7z"/><path d="m246.3 99.8a3.2 3.2 0 0 0 .7-2.3v-1.8a4.3 4.3 0 0 1 -1.6 1.4 4.6 4.6 0 0 1 -2.1.5 5.1 5.1 0 0 1 -3.9-1.8 7.5 7.5 0 0 1 0-9 5.1 5.1 0 0 1 3.9-1.8 4.6 4.6 0 0 1 2.1.4 5.1 5.1 0 0 1 1.6 1.3v-1.4h3.2v12.3a5.7 5.7 0 0 1 -1.6 4.1 6.9 6.9 0 0 1 -4.5 1.4 7.2 7.2 0 0 1 -4-1 4.1 4.1 0 0 1 -2.1-2.7l3-1.1a2.8 2.8 0 0 0 1.1 1.7 3.1 3.1 0 0 0 2 .5 2.9 2.9 0 0 0 2.2-.7zm-.1-11.1a2.6 2.6 0 0 0 -2.1-.9 2.8 2.8 0 0 0 -2.2.9 4.2 4.2 0 0 0 -.8 2.6 4.1 4.1 0 0 0 .8 2.5 2.8 2.8 0 0 0 2.2.9 2.6 2.6 0 0 0 2.1-.9 3.7 3.7 0 0 0 .9-2.5 3.7 3.7 0 0 0 -.9-2.6z"/></g></svg>