<svg height="250" viewBox="0 0 300 250" width="300" xmlns="http://www.w3.org/2000/svg"><g fill="#f6f6f6"><path d="m49.2 60.2h-9.9l-8.8-16.2s.2 3.2.2 5.3v11h-9.3v-29.2h10.3l8.4 16.2s-.2-3.2-.2-5.3v-11h9.3z"/><path d="m81.3 60.2h-10.4l-1.1-4.1h-8.3l-1.1 4.1h-9.9l10.1-29.1h10.5zm-13.5-11.3-2.2-7.8-2.2 7.8z"/><path d="m103.7 38.6h-6.9v21.7h-9.5v-21.7h-6.8v-7.4h23.2z"/><path d="m131.7 47.8c0 4.6-1.1 7.4-3.2 9.5s-5.5 3.4-10.1 3.4-8-1.3-10.1-3.4-3.2-4.8-3.2-9.5v-16.7h9.6v17.1c0 1.7.3 2.5 1 3.2a3.7 3.7 0 0 0 2.7 1.1 3.4 3.4 0 0 0 2.7-1.1c.6-.6.9-1.5.9-3.2v-17.1h9.6v16.7z"/><path d="m161.6 60.2h-11l-4.6-9.7h-1.2v9.7h-9.5v-29.1h12.6c3.6 0 6.3.6 8.4 2.1a8.7 8.7 0 0 1 3.6 7.2 9.5 9.5 0 0 1 -4.8 8.8zm-12.3-21.3a3.6 3.6 0 0 0 -2.1-.5h-2.4v5.1h2.4a3.4 3.4 0 0 0 2.1-.5 2.1 2.1 0 0 0 1.1-2 2.5 2.5 0 0 0 -1.1-2.1z"/><path d="m183.8 60.2h-21.1v-29.1h20.7v7.5h-11.2v3.2h10.5v7.5h-10.5v3.4h11.6z"/></g></svg>