<svg height="250" viewBox="0 0 300 250" width="300" xmlns="http://www.w3.org/2000/svg"><g fill="#f6f6f6"><path d="m40.8 96.6h-19.4v-29.1h9.5v21.3h9.9z"/><path d="m52.4 96.6h-9.5v-29.1h9.5z"/><path d="m83.6 96.6h-11.4l-4.8-9.7-1.7 2.1v7.6h-9.5v-29.1h9.5v8.9l6.1-8.9h11.2l-9.4 11.7z"/><path d="m105.6 96.6h-21.1v-29.1h20.7v7.5h-11.2v3.2h10.5v7.5h-10.5v3.3h11.6z"/><path d="m144.1 96.6h-9.9l-8.9-16.2s.2 3.2.2 5.3v11h-9.3v-29.2h10.3l8.4 16.2s-.2-3.2-.2-5.3v-11h9.3v29.2z"/><path d="m169 96.6h-21.1v-29.1h20.7v7.5h-11.2v3.2h10.6v7.5h-10.5v3.3h11.5z"/><path d="m200.6 67.5-11 29.1h-9.3l-11-29.1h10.1l5.5 16.9 5.5-16.9z"/><path d="m223 96.6h-21.1v-29.1h20.7v7.5h-11.2v3.2h10.5v7.5h-10.5v3.3h11.6z"/><path d="m252.3 96.6h-11l-4.6-9.7h-1.2v9.7h-9.5v-29.1h12.6c3.6 0 6.3.6 8.4 2.1a8.7 8.7 0 0 1 3.6 7.2 9.5 9.5 0 0 1 -4.8 8.8zm-12.4-21.4a3.6 3.6 0 0 0 -2.1-.5h-2.4v5.1h2.4a3.4 3.4 0 0 0 2.1-.5 2.1 2.1 0 0 0 1.1-2 2.3 2.3 0 0 0 -1.1-2.1z"/></g></svg>