<svg height="250" viewBox="0 0 300 250" width="300" xmlns="http://www.w3.org/2000/svg"><g fill="#fff"><path d="m96.8 87.4h3.2v4.3h3l-.2 2.7h-2.8v3.5h-3.2v-3.5h-7.8v-2.8a63.2 63.2 0 0 0 3.3-5.6 35.7 35.7 0 0 0 2.3-5.1h3.6a24.5 24.5 0 0 1 -2.3 5.2 42.4 42.4 0 0 1 -3.8 5.6h4.7z"/><path d="m115.6 97.9-5.8-6.8h-1.2v6.8h-3.5v-17h3.5v7h1l5.8-7h4.1l-7.1 8.4 7.4 8.6z"/><path d="m136.2 86.3a5.1 5.1 0 0 1 1.9 3.2l-3.1.5a2.3 2.3 0 0 0 -.9-1.5 2.7 2.7 0 0 0 -1.7-.6 3 3 0 0 0 -2.4 1 4.7 4.7 0 0 0 -.8 2.8 4.6 4.6 0 0 0 .8 2.7 3.3 3.3 0 0 0 2.4 1 2.5 2.5 0 0 0 1.7-.6 2.1 2.1 0 0 0 .9-1.5l3.1.5a5.1 5.1 0 0 1 -1.9 3.2 6.4 6.4 0 0 1 -3.8 1.2 6.2 6.2 0 0 1 -4.6-1.8 6.6 6.6 0 0 1 -1.8-4.7 6.6 6.6 0 0 1 1.8-4.8 6.2 6.2 0 0 1 4.6-1.8 6.4 6.4 0 0 1 3.8 1.2z"/><path d="m140.2 97.9v-18.5h3.2v7.4a4.7 4.7 0 0 1 1.5-1.3 4.6 4.6 0 0 1 2.1-.4 4 4 0 0 1 3.1 1.4 5.2 5.2 0 0 1 1.2 3.6v7.8h-3.2v-7.5a2.8 2.8 0 0 0 -.6-1.8 2.1 2.1 0 0 0 -1.6-.6 2.5 2.5 0 0 0 -1.8.8 2.8 2.8 0 0 0 -.7 2.1v7z"/><path d="m157.3 88.3a1.9 1.9 0 0 0 -.6 1.5l-3-.6a3.3 3.3 0 0 1 1.6-2.9 6.1 6.1 0 0 1 3.9-1.2 5.7 5.7 0 0 1 3.9 1.2 4.2 4.2 0 0 1 1.3 3.4v6.8a5.7 5.7 0 0 1 .1 1.4h-3.1v-1.6a3.6 3.6 0 0 1 -1.6 1.4 5.6 5.6 0 0 1 -2.3.5 4.4 4.4 0 0 1 -3-1 3 3 0 0 1 -1.1-2.6 3.5 3.5 0 0 1 1.1-2.6 6.6 6.6 0 0 1 3.5-1l3.2-.2v-1a1.7 1.7 0 0 0 -.5-1.5 2.1 2.1 0 0 0 -1.6-.5 3.2 3.2 0 0 0 -1.8.5zm-.2 7.2a2.2 2.2 0 0 0 1.3.4 3.3 3.3 0 0 0 2.1-.7 2.8 2.8 0 0 0 .7-2.1v-.3h-2.8a2.2 2.2 0 0 0 -1.3.4 1.5 1.5 0 0 0 0 2.2z"/><path d="m167.4 97.9v-12.5h3.1v1.4a5.1 5.1 0 0 1 1.6-1.3 4.5 4.5 0 0 1 2-.4 4.2 4.2 0 0 1 3.2 1.4 5.8 5.8 0 0 1 1.1 3.7v7.7h-3.2v-7.5a2.7 2.7 0 0 0 -.5-1.8 2.1 2.1 0 0 0 -1.6-.6 2.2 2.2 0 0 0 -1.8.8 2.8 2.8 0 0 0 -.7 2.1v7z"/><path d="m181.3 97.9v-12.5h3.2v1.4a4.2 4.2 0 0 1 1.6-1.3 4.5 4.5 0 0 1 2-.4 3.8 3.8 0 0 1 3.1 1.4 5.3 5.3 0 0 1 1.2 3.7v7.7h-3.2v-7.5a3.5 3.5 0 0 0 -.5-1.8 2.3 2.3 0 0 0 -1.6-.6 2.6 2.6 0 0 0 -1.9.8 3.3 3.3 0 0 0 -.7 2.1v7z"/><path d="m205.4 87a7.2 7.2 0 0 1 1.6 5v.6h-9.2a3.7 3.7 0 0 0 1.2 2.1 2.9 2.9 0 0 0 2.2.8 2.7 2.7 0 0 0 1.6-.4 2.3 2.3 0 0 0 1-1.2l3.2.6a5.2 5.2 0 0 1 -2.2 2.7 6.1 6.1 0 0 1 -3.6 1 6.5 6.5 0 0 1 -4.8-1.8 7 7 0 0 1 0-9.4 5.9 5.9 0 0 1 4.6-1.9 5.5 5.5 0 0 1 4.4 1.9zm-6.4 1.5a3.6 3.6 0 0 0 -1.1 1.9h5.9a3.8 3.8 0 0 0 -.9-1.9 2.5 2.5 0 0 0 -1.9-.7 2.7 2.7 0 0 0 -2 .7z"/><path d="m212.3 79.4v18.5h-3.2v-18.5z"/></g></svg>