<svg enable-background="new 0 0 300 250" viewBox="0 0 300 250" xmlns="http://www.w3.org/2000/svg"><g fill="#fff"><path d="m47.377 132.746h-3.558v5.359h-9.302v-5.359h-13.933v-7.073l12.218-17.147h11.017v16.933h3.558zm-12.646-7.073v-7.931l-5.573 7.931z"/><path d="m77.602 138.105h-11.574l-4.93-9.86-1.715 2.143v7.716h-9.646v-29.579h9.646v9.002l6.216-9.002h11.36l-9.56 11.917z"/><path d="m83.606 138.576c-3.129 0-5.273-1.629-5.273-4.63s2.143-4.673 5.273-4.673c3.087 0 5.23 1.672 5.23 4.673s-2.143 4.63-5.23 4.63zm5.016-30.051-.857 19.291h-8.359l-.857-19.291z"/></g></svg>