<svg height="250" viewBox="0 0 300 250" width="300" xmlns="http://www.w3.org/2000/svg"><path d="m137 187.6h-101.7a15.7 15.7 0 0 1 -15.7-15.7 15.7 15.7 0 0 1 15.7-15.7h101.7a15.7 15.7 0 0 1 15.7 15.7 15.8 15.8 0 0 1 -15.7 15.7z" fill="#fff"/><g fill="#ee4722"><path d="m50.9 178.4a6 6 0 0 1 0-12 5 5 0 0 1 5.1 3.6l-2.3.5a2.8 2.8 0 0 0 -2.9-2 3.5 3.5 0 0 0 -3.5 3.8c0 2.3 1.4 3.9 3.5 3.9a3 3 0 0 0 3.1-2.6h-3.9v-1.9h6.3v.6c.1 4.4-2.7 6.1-5.4 6.1z"/><path d="m65.8 174.6h-6.2a2.2 2.2 0 0 0 2.3 1.9 1.8 1.8 0 0 0 1.8-1.1l2.2.4a3.9 3.9 0 0 1 -3.9 2.5 4.4 4.4 0 1 1 -.1-8.8c2.4 0 4.1 1.7 4.1 4.7v.4zm-6.2-1.5h4a1.9 1.9 0 0 0 -1.9-1.7 1.9 1.9 0 0 0 -2.1 1.7z"/><path d="m67.4 169.7v-2.1l2.2-.2v2.3h2v1.9h-2v3.9c0 .6.4.9 1 .9l.9-.2-.2 1.9-1.3.2a2.5 2.5 0 0 1 -2.7-2.7v-4.1h-1.3v-1.9h1.4z"/><path d="m76.4 169.7v-2.1l2.2-.2v2.3h2v1.9h-2v3.9c0 .6.4.9 1 .9l.9-.2-.2 1.9-1.3.2a2.5 2.5 0 0 1 -2.7-2.7v-4.1h-1.3v-1.9h1.4z"/><path d="m81.7 166.6h2.2v4a3.2 3.2 0 0 1 2.5-1.2c1.8 0 2.9 1.4 2.9 3.4v5.3h-2.2v-5.1a1.4 1.4 0 0 0 -1.5-1.6 1.7 1.7 0 0 0 -1.7 1.9v4.8h-2.2z"/><path d="m98.8 174.6h-6.2a2.2 2.2 0 0 0 2.3 1.9 1.8 1.8 0 0 0 1.8-1.1l2.2.4a3.9 3.9 0 0 1 -3.9 2.5 4.4 4.4 0 1 1 -.1-8.8c2.4 0 4.1 1.7 4.1 4.7v.4zm-6.2-1.5h4a1.9 1.9 0 0 0 -1.9-1.7 2 2 0 0 0 -2.1 1.7z"/><path d="m102.6 167.8a1.4 1.4 0 1 1 1.4 1.4 1.4 1.4 0 0 1 -1.4-1.4zm2.6 10.4h-2.2v-8.5h2.2z"/><path d="m106.3 172.4a5.8 5.8 0 1 1 11.6 0 6.3 6.3 0 0 1 -1 3.5l1.1 1.1-1.3 1.5-1.2-1.1a5.9 5.9 0 0 1 -9.2-5zm7.6 3.4-2-1.9 1.3-1.5 2 1.8a3.8 3.8 0 0 0 .4-1.9c0-2.2-1.4-3.9-3.5-3.9s-3.4 1.6-3.4 3.9 1.4 3.9 3.4 3.9a2.7 2.7 0 0 0 1.8-.4z"/><path d="m126.3 171.1v2.9h2v1.9h-1.8v2.3h-2.5v-2.3h-5.3v-1.9a36.8 36.8 0 0 0 3.8-7.3h2.5a20.8 20.8 0 0 1 -4.2 7.3h3.2v-2.9z"/></g></svg>