<svg height="250" viewBox="0 0 300 250" width="300" xmlns="http://www.w3.org/2000/svg"><g fill="#f6f6f6"><path d="m43.3 131a14.1 14.1 0 0 1 -7.6 1.9h-14.3v-29.1h12a19.8 19.8 0 0 1 7.4 1.1 6.6 6.6 0 0 1 4.3 6.3 7.1 7.1 0 0 1 -4.1 6.5c3.4.9 5.6 3.4 5.6 6.8s-1.4 5.3-3.3 6.5zm-8.4-19.9a3.3 3.3 0 0 0 -2.1-.4h-1.9v4.2h1.9a2.8 2.8 0 0 0 2.1-.5 1.7 1.7 0 0 0 .8-1.6 1.8 1.8 0 0 0 -.8-1.7zm1.3 10.6a3.6 3.6 0 0 0 -2.2-.5h-3.1v4.7h3.1a3.6 3.6 0 0 0 2.2-.6 1.9 1.9 0 0 0 .8-1.7 2.2 2.2 0 0 0 -.8-1.9z"/><path d="m69.9 132.9h-21.1v-29.1h20.7v7.5h-11.2v3.2h10.5v7.5h-10.5v3.3h11.6z"/><path d="m93.1 111.3h-10.8v4.5h10.1v7.5h-10.1v9.6h-9.5v-29.1h20.3z"/><path d="m110.2 133.4c-9.1 0-15.9-5.5-15.9-15s6.8-15 15.9-15 15.8 5.5 15.8 15-6.8 15-15.8 15zm0-22c-3.8 0-6.3 2.8-6.3 6.8s2.5 6.8 6.3 6.8 6.2-2.8 6.2-6.8-2.5-6.8-6.2-6.8z"/><path d="m154.8 132.9h-10.9l-4.7-9.7h-1.2v9.7h-9.5v-29.1h12.6c3.6 0 6.4.7 8.5 2.1a8.7 8.7 0 0 1 3.6 7.2c0 5.9-3.6 8-4.9 8.8zm-12.3-21.4a3.6 3.6 0 0 0 -2.1-.5h-2.4v5h2.4a3.6 3.6 0 0 0 2.1-.5 2 2 0 0 0 1-2 2.3 2.3 0 0 0 -1-2z"/><path d="m177 132.9h-21.1v-29.1h20.7v7.5h-11.2v3.2h10.5v7.5h-10.5v3.3h11.6z"/></g></svg>