<svg height="250" viewBox="0 0 300 250" width="300" xmlns="http://www.w3.org/2000/svg"><g fill="#fff"><path d="m101.8 39.4a9.2 9.2 0 0 1 -2.2 6.5 7.7 7.7 0 0 1 -5.9 2.3 8.6 8.6 0 0 1 -6.2-2.4 8.8 8.8 0 0 1 -2.4-6.3 8.5 8.5 0 0 1 2.4-6.3 8.3 8.3 0 0 1 6.2-2.5 8.1 8.1 0 0 1 4.9 1.5 6.8 6.8 0 0 1 2.7 3.8l-3.4.7a3.6 3.6 0 0 0 -1.5-2.1 4.6 4.6 0 0 0 -2.7-.8 4.7 4.7 0 0 0 -3.7 1.6 6 6 0 0 0 -1.4 4.1 6.4 6.4 0 0 0 1.4 4.1 5.1 5.1 0 0 0 3.8 1.6 4.9 4.9 0 0 0 3.1-1.1 4 4 0 0 0 1.4-2.8h-5.7v-2.8h9.2z"/><path d="m115 35.5v7.6a4.7 4.7 0 0 1 -1.5 3.7 5.3 5.3 0 0 1 -4 1.4 5.2 5.2 0 0 1 -4-1.4 4.7 4.7 0 0 1 -1.5-3.7v-7.6h3.2v7.5a2.8 2.8 0 0 0 .6 1.8 2.7 2.7 0 0 0 3.4 0 2.8 2.8 0 0 0 .6-1.8v-7.5z"/><path d="m120.9 38.4a2.1 2.1 0 0 0 -.7 1.4l-2.9-.5a3.5 3.5 0 0 1 1.6-3 6.6 6.6 0 0 1 3.8-1.1 5.7 5.7 0 0 1 3.9 1.2 4.3 4.3 0 0 1 1.4 3.4v6.8a6.6 6.6 0 0 0 .1 1.3h-3.2v-1.6a4 4 0 0 1 -1.5 1.4 4.3 4.3 0 0 1 -2.3.5 4.9 4.9 0 0 1 -3-.9 3.3 3.3 0 0 1 -1.1-2.6 3 3 0 0 1 1.1-2.6 6.6 6.6 0 0 1 3.5-1.1l3.2-.2v-.9a2.5 2.5 0 0 0 -.5-1.6 2.7 2.7 0 0 0 -1.7-.4 2.5 2.5 0 0 0 -1.7.5zm-.2 7.1a1.7 1.7 0 0 0 1.3.4 2.7 2.7 0 0 0 2-.7 2.8 2.8 0 0 0 .8-2v-.3h-2.8a1.7 1.7 0 0 0 -1.3.4c-.4.2-.5.6-.5 1.1a1.2 1.2 0 0 0 .5 1.1z"/><path d="m135 39.2a3.7 3.7 0 0 0 -.9 2.6v6.1h-3.2v-12.4h3.1v1.6a4 4 0 0 1 1.5-1.4 3.5 3.5 0 0 1 1.8-.5h.7l.3 3.1h-.9a3.2 3.2 0 0 0 -2.4.9z"/><path d="m143.3 38.4a1.5 1.5 0 0 0 -.7 1.4l-3-.5a3.8 3.8 0 0 1 1.6-3 6.7 6.7 0 0 1 3.9-1.1 5.6 5.6 0 0 1 3.8 1.2 4.3 4.3 0 0 1 1.4 3.4v6.8a6.6 6.6 0 0 0 .1 1.3h-3.2v-1.6a3.4 3.4 0 0 1 -1.5 1.4 4.3 4.3 0 0 1 -2.3.5 4.9 4.9 0 0 1 -3-.9 3.6 3.6 0 0 1 -1.1-2.6 3.1 3.1 0 0 1 1.2-2.6 5.9 5.9 0 0 1 3.4-1.1l3.2-.2v-.9a2.5 2.5 0 0 0 -.5-1.6 2.5 2.5 0 0 0 -1.6-.4 2.2 2.2 0 0 0 -1.7.5zm-.3 7.1a1.7 1.7 0 0 0 1.3.4 2.8 2.8 0 0 0 2.1-.7 2.7 2.7 0 0 0 .7-2v-.3h-2.8a1.7 1.7 0 0 0 -1.3.4 1.3 1.3 0 0 0 -.5 1.1 1.2 1.2 0 0 0 .5 1.1z"/><path d="m153.2 47.9v-12.4h3.2v1.4a3.7 3.7 0 0 1 1.5-1.3 4.6 4.6 0 0 1 2.1-.4 4 4 0 0 1 3.1 1.4 5.2 5.2 0 0 1 1.1 3.6v7.7h-3.1v-7.4a2.4 2.4 0 0 0 -.6-1.8 2.1 2.1 0 0 0 -1.6-.6 2.1 2.1 0 0 0 -1.8.8 2.7 2.7 0 0 0 -.7 2v7z"/><path d="m166 35.5h2v-3h1.5l1.7-.2v3.3h3l-.2 2.7h-2.8v5.7a1.4 1.4 0 0 0 .4 1.1 1.6 1.6 0 0 0 1.1.3h1.4l-.3 2.8-.9.2h-1a3.9 3.9 0 0 1 -2.9-1 4.2 4.2 0 0 1 -1-2.9v-6.3h-2z"/><path d="m186.4 37.1a7.1 7.1 0 0 1 1.6 4.9v.7h-9.1a3.1 3.1 0 0 0 1.1 2.1 3.3 3.3 0 0 0 2.2.8 2.5 2.5 0 0 0 1.6-.5 2.3 2.3 0 0 0 1-1.2l3.2.7a4.7 4.7 0 0 1 -2.2 2.6 6.1 6.1 0 0 1 -3.6 1 6.6 6.6 0 0 1 -4.8-1.8 6.4 6.4 0 0 1 -1.8-4.7 6.6 6.6 0 0 1 1.8-4.7 6.2 6.2 0 0 1 4.6-1.8 5.5 5.5 0 0 1 4.4 1.9zm-6.4 1.5a3.3 3.3 0 0 0 -1.1 1.8h5.9a2.8 2.8 0 0 0 -.9-1.8 2.5 2.5 0 0 0 -1.9-.7 2.9 2.9 0 0 0 -2 .7z"/><path d="m200.2 37.1a6.7 6.7 0 0 1 1.7 4.9v.7h-9.1a3.1 3.1 0 0 0 1.1 2.1 3.3 3.3 0 0 0 2.2.8 2.8 2.8 0 0 0 1.6-.5 2.3 2.3 0 0 0 1-1.2l3.1.7a4.5 4.5 0 0 1 -2.1 2.6 6.3 6.3 0 0 1 -3.6 1 6.5 6.5 0 0 1 -4.8-1.8 6.4 6.4 0 0 1 -1.8-4.7 6.6 6.6 0 0 1 1.8-4.7 6.2 6.2 0 0 1 4.6-1.8 5.3 5.3 0 0 1 4.3 1.9zm-6.3 1.5a3.3 3.3 0 0 0 -1.1 1.8h5.9a3.5 3.5 0 0 0 -1-1.8 2.3 2.3 0 0 0 -1.8-.7 2.9 2.9 0 0 0 -2 .7z"/><path d="m205 46.4a6.9 6.9 0 0 1 -1.6-4.7 7.3 7.3 0 0 1 1.5-4.7 5.1 5.1 0 0 1 3.9-1.8 5.4 5.4 0 0 1 2.2.5 4 4 0 0 1 1.6 1.3v-7.5h3.2v18.4h-3.2v-1.5a4.3 4.3 0 0 1 -1.6 1.4 4.6 4.6 0 0 1 -2.1.4 4.8 4.8 0 0 1 -3.9-1.8zm6.9-7.4a3 3 0 0 0 -2.2-1 3.1 3.1 0 0 0 -2.3 1 5 5 0 0 0 0 5.4 2.8 2.8 0 0 0 2.3 1 2.7 2.7 0 0 0 2.2-1 5 5 0 0 0 0-5.4z"/></g></svg>