<svg enable-background="new 0 0 300 250" viewBox="0 0 300 250" xmlns="http://www.w3.org/2000/svg"><g fill="#fff"><path d="m63.667 39.486-8.359 29.579h-9.86l-3.986-16.719-3.944 16.719h-9.86l-8.359-29.579h10.074l3.644 16.504 3.644-16.504h9.645l3.644 16.504 3.644-16.504z"/><path d="m92.179 69.065h-9.688v-10.931h-8.059v10.931h-9.689v-29.579h9.689v10.717h8.059v-10.717h9.688z"/><path d="m124.548 69.065h-10.503l-1.158-4.158h-8.445l-1.115 4.158h-10.073l10.288-29.579h10.717zm-13.675-11.575-2.186-7.931-2.186 7.931z"/><path d="m147.1 47.031h-6.988v22.034h-9.689v-22.034h-6.945v-7.545h23.622z"/></g></svg>