<svg height="250" viewBox="0 0 300 250" width="300" xmlns="http://www.w3.org/2000/svg"><g fill="#fff"><path d="m67.5 46.4 5.3-17h4.7l5.2 17h-3.3l-1.2-4h-6.2l-1.2 4zm5.4-6.9h4.4l-2.2-7.3z"/><path d="m95.2 33.9v7.6a5 5 0 0 1 -1.5 3.8 6.4 6.4 0 0 1 -8 0 5 5 0 0 1 -1.5-3.8v-7.6h3.2v7.5a2.8 2.8 0 0 0 .6 1.8 2.7 2.7 0 0 0 3.4 0 2.8 2.8 0 0 0 .6-1.8v-7.5z"/><path d="m105.5 34.4a4.6 4.6 0 0 1 1.7 2.4l-2.8.9a2.4 2.4 0 0 0 -.8-1.3 2.1 2.1 0 0 0 -1.4-.4 1.7 1.7 0 0 0 -1.3.4 1 1 0 0 0 -.5 1 1.1 1.1 0 0 0 .3.8 2.3 2.3 0 0 0 1.1.4l2 .3a4.8 4.8 0 0 1 2.7 1.2 2.9 2.9 0 0 1 .9 2.3 3.7 3.7 0 0 1 -1.4 3.1 5.6 5.6 0 0 1 -3.8 1.2 5.8 5.8 0 0 1 -3.5-1 4.2 4.2 0 0 1 -1.8-2.5l2.8-.9a1.9 1.9 0 0 0 .9 1.4 2.3 2.3 0 0 0 1.7.5 3.1 3.1 0 0 0 1.5-.3 1.3 1.3 0 0 0 .6-1.1 1.8 1.8 0 0 0 -.4-.9 2.8 2.8 0 0 0 -1.2-.4l-2.1-.3a5.3 5.3 0 0 1 -2.5-1.1 3.2 3.2 0 0 1 -.9-2.4 3.9 3.9 0 0 1 1.4-3 5.6 5.6 0 0 1 3.5-1.1 6.7 6.7 0 0 1 3.3.8z"/><path d="m108.4 33.9h2v-3l1.4-.2 1.8-.2v3.4h2.9v2.7h-2.8v5.8a1.8 1.8 0 0 0 .3 1.1 2.1 2.1 0 0 0 1.2.3h.7l.7-.2-.3 2.8-.9.2h-1a4 4 0 0 1 -2.9-1.1 3.8 3.8 0 0 1 -1-2.9v-6h-2z"/><path d="m123.1 37.6a3.7 3.7 0 0 0 -.9 2.6v6.2h-3.2v-12.5h3.1v1.6a4 4 0 0 1 1.5-1.4 4.1 4.1 0 0 1 1.8-.5h.8l.2 3.1h-.8a3.7 3.7 0 0 0 -2.5.9z"/><path d="m131.4 36.8a1.7 1.7 0 0 0 -.7 1.4l-3-.5a4.1 4.1 0 0 1 1.6-3 6.7 6.7 0 0 1 3.9-1.1 5.7 5.7 0 0 1 3.9 1.2 4.2 4.2 0 0 1 1.3 3.4v5.5c0 .5.1.9.1 1.3v1.4h-3.1v-1.7a3.9 3.9 0 0 1 -1.6 1.5 5.1 5.1 0 0 1 -2.2.5 4.5 4.5 0 0 1 -3-1 3.4 3.4 0 0 1 -1.2-2.6 3.1 3.1 0 0 1 1.2-2.6 6.3 6.3 0 0 1 3.5-1.1l3.2-.2v-1a2 2 0 0 0 -.6-1.5 2.4 2.4 0 0 0 -1.6-.4 2.3 2.3 0 0 0 -1.7.5zm-.3 7.1a1.8 1.8 0 0 0 1.3.4 2.8 2.8 0 0 0 2.1-.7 2.6 2.6 0 0 0 .8-2v-.3h-2.8a2 2 0 0 0 -1.4.4 1.2 1.2 0 0 0 -.4 1.1 1.2 1.2 0 0 0 .4 1.1z"/><path d="m144.6 27.9v18.5h-3.2v-18.5z"/><path d="m150.7 31.4a2.2 2.2 0 0 1 -3 0 2 2 0 0 1 -.6-1.4 2.1 2.1 0 0 1 3.6-1.5 2 2 0 0 1 .5 1.5 1.9 1.9 0 0 1 -.5 1.4zm.1 2.5v12.5h-3.2v-12.5z"/><path d="m156.9 36.8a2.1 2.1 0 0 0 -.7 1.4l-3-.5a4.1 4.1 0 0 1 1.6-3 7.1 7.1 0 0 1 3.9-1.1 5.7 5.7 0 0 1 3.9 1.2 4.3 4.3 0 0 1 1.4 3.4v6.8a8.2 8.2 0 0 0 .1 1.4h-3.2v-1.7a3.6 3.6 0 0 1 -1.5 1.5 5.6 5.6 0 0 1 -2.3.5 4.9 4.9 0 0 1 -3-1 3.4 3.4 0 0 1 -1.2-2.6 3.1 3.1 0 0 1 1.2-2.6 6.6 6.6 0 0 1 3.5-1.1l3.2-.2v-1a2.5 2.5 0 0 0 -.5-1.5 2.7 2.7 0 0 0 -1.7-.4 2.5 2.5 0 0 0 -1.7.5zm-.2 7.1a1.7 1.7 0 0 0 1.3.4 2.7 2.7 0 0 0 2-.7 2.3 2.3 0 0 0 .8-2v-.3h-2.8a1.7 1.7 0 0 0 -1.3.4c-.4.2-.5.6-.5 1.1a1.2 1.2 0 0 0 .5 1.1z"/><path d="m170.4 29.9a2.8 2.8 0 0 1 .7 2.1 5.6 5.6 0 0 1 -1.1 3.2 5.8 5.8 0 0 1 -2.6 2.3l-1.3-1a8.3 8.3 0 0 0 1.9-1.6 3.3 3.3 0 0 0 .8-1.7 2.5 2.5 0 0 1 -1.5-.5 2.1 2.1 0 0 1 1.5-3.6 1.7 1.7 0 0 1 1.6.8z"/><path d="m180.9 34.4a4.1 4.1 0 0 1 1.7 2.4l-2.7.9a2.5 2.5 0 0 0 -.9-1.3 2 2 0 0 0 -1.4-.4 1.8 1.8 0 0 0 -1.3.4 1.2 1.2 0 0 0 -.5 1 .9.9 0 0 0 .4.8 1.9 1.9 0 0 0 1 .4l2.1.3a4.8 4.8 0 0 1 2.7 1.2 2.9 2.9 0 0 1 .9 2.3 4 4 0 0 1 -1.4 3.1 5.8 5.8 0 0 1 -3.8 1.2 5.6 5.6 0 0 1 -3.5-1 4 4 0 0 1 -1.9-2.5l2.8-.9a2.8 2.8 0 0 0 .9 1.4 2.5 2.5 0 0 0 1.7.5 3.5 3.5 0 0 0 1.6-.3 1.4 1.4 0 0 0 .5-1.1 1.2 1.2 0 0 0 -.4-.9 2.3 2.3 0 0 0 -1.1-.4l-2.1-.3a5.7 5.7 0 0 1 -2.6-1.1 3.6 3.6 0 0 1 -.8-2.4 3.8 3.8 0 0 1 1.3-3 5.9 5.9 0 0 1 3.6-1.1 6.3 6.3 0 0 1 3.2.8z"/><path d="m189.4 33.9h2v-1.8a4.5 4.5 0 0 1 1.1-3.3 4.4 4.4 0 0 1 3.2-1.2h1l.9.2.3 2.9-.8-.2h-.8a1.6 1.6 0 0 0 -1.3.5 2.1 2.1 0 0 0 -.5 1.5v1.5h3v2.7h-2.9v9.8h-3.1v-9.9h-2z"/><path d="m202.6 31.4a2.2 2.2 0 0 1 -3 0 2 2 0 0 1 -.6-1.4 2.1 2.1 0 1 1 4.2 0 2 2 0 0 1 -.6 1.4zm.1 2.5v12.5h-3.2v-12.5z"/><path d="m209.8 37.6a3.7 3.7 0 0 0 -.9 2.6v6.2h-3.2v-12.5h3.1v1.6a4 4 0 0 1 1.5-1.4 3.5 3.5 0 0 1 1.8-.5h.7l.3 3.1h-.9a3.2 3.2 0 0 0 -2.4.9z"/><path d="m222.6 34.4a4.6 4.6 0 0 1 1.7 2.4l-2.8.9a2.4 2.4 0 0 0 -.8-1.3 2.1 2.1 0 0 0 -1.4-.4 1.7 1.7 0 0 0 -1.3.4 1 1 0 0 0 -.5 1 1.1 1.1 0 0 0 .3.8 2.3 2.3 0 0 0 1.1.4l2.1.3a4.9 4.9 0 0 1 2.6 1.2 2.9 2.9 0 0 1 .9 2.3 3.7 3.7 0 0 1 -1.4 3.1 5.5 5.5 0 0 1 -3.7 1.2 5.9 5.9 0 0 1 -3.6-1 4.2 4.2 0 0 1 -1.8-2.5l2.8-.9a1.9 1.9 0 0 0 .9 1.4 2.3 2.3 0 0 0 1.7.5 2.8 2.8 0 0 0 1.5-.3 1.3 1.3 0 0 0 .6-1.1 1.2 1.2 0 0 0 -.4-.9 2.4 2.4 0 0 0 -1.2-.4l-2-.3a5.2 5.2 0 0 1 -2.6-1.1 3.2 3.2 0 0 1 -.9-2.4 3.9 3.9 0 0 1 1.4-3 5.7 5.7 0 0 1 3.6-1.1 6.6 6.6 0 0 1 3.2.8z"/><path d="m225.5 33.9h2v-3l1.4-.2 1.8-.2v3.4h3l-.2 2.7h-2.8v5.8a1.8 1.8 0 0 0 .3 1.1 2.1 2.1 0 0 0 1.2.3h.7l.7-.2-.3 2.8-.9.2h-1a4 4 0 0 1 -2.9-1.1 3.8 3.8 0 0 1 -1-2.9v-6h-2z"/></g></svg>