<svg height="250" viewBox="0 0 300 250" width="300" xmlns="http://www.w3.org/2000/svg"><g fill="#fff"><path d="m81.4 110.1h1.9v-3h1.5l1.7-.2v3.3h3l-.2 2.8h-2.8v5.8a1.2 1.2 0 0 0 .4 1 1.6 1.6 0 0 0 1.1.4h.7l.7-.2-.3 2.8-.9.2h-1a4 4 0 0 1 -2.8-1 4 4 0 0 1 -1.1-2.9v-6.1h-1.9z"/><path d="m91.9 122.6v-18.4h3.2v7.3a4.4 4.4 0 0 1 1.5-1.2 4.6 4.6 0 0 1 2.1-.4 3.9 3.9 0 0 1 3.1 1.3 5.3 5.3 0 0 1 1.2 3.7v7.7h-3.2v-7.4a2.4 2.4 0 0 0 -.6-1.8 1.9 1.9 0 0 0 -1.6-.7 2.5 2.5 0 0 0 -1.8.8 2.8 2.8 0 0 0 -.7 2.1v7z"/><path d="m108.9 107.7a2 2 0 0 1 -1.5.6 1.8 1.8 0 0 1 -1.4-.6 2 2 0 0 1 -.6-1.5 2 2 0 0 1 .6-1.4 1.8 1.8 0 0 1 1.4-.6 2 2 0 0 1 1.5.6 2 2 0 0 1 .6 1.4 2 2 0 0 1 -.6 1.5zm.1 2.4v12.5h-3.2v-12.5z"/><path d="m119.4 110.7a3.6 3.6 0 0 1 1.7 2.3l-2.7.9a2.8 2.8 0 0 0 -.8-1.2 2.3 2.3 0 0 0 -1.4-.4 2.9 2.9 0 0 0 -1.4.3 1.4 1.4 0 0 0 -.5 1 .9.9 0 0 0 .4.8l1 .5 2.1.3a4.2 4.2 0 0 1 2.7 1.1 3.2 3.2 0 0 1 .9 2.4 3.9 3.9 0 0 1 -1.4 3 5.8 5.8 0 0 1 -3.8 1.2 6.3 6.3 0 0 1 -3.5-.9 4.5 4.5 0 0 1 -1.8-2.5l2.8-.9a2.5 2.5 0 0 0 .8 1.4 3.5 3.5 0 0 0 1.8.5 2.4 2.4 0 0 0 1.5-.4 1.4 1.4 0 0 0 .2-1.9 2.1 2.1 0 0 0 -1.2-.4l-2.1-.4a3.7 3.7 0 0 1 -2.5-1.1 3.2 3.2 0 0 1 -.9-2.4 3.7 3.7 0 0 1 1.4-2.9 5.1 5.1 0 0 1 3.5-1.1 5.3 5.3 0 0 1 3.2.8z"/><path d="m142.8 120.4a8.8 8.8 0 0 1 -12.3 0 8.5 8.5 0 0 1 -2.4-6.3 8.8 8.8 0 0 1 2.4-6.3 9.1 9.1 0 0 1 12.3 0 8.8 8.8 0 0 1 2.4 6.3 8.5 8.5 0 0 1 -2.4 6.3zm-9.8-2.2a4.6 4.6 0 0 0 3.7 1.6 4.4 4.4 0 0 0 3.6-1.6 6 6 0 0 0 1.4-4.1 6.4 6.4 0 0 0 -1.4-4.1 4.6 4.6 0 0 0 -3.6-1.5 4.8 4.8 0 0 0 -3.7 1.5 6.4 6.4 0 0 0 -1.4 4.1 6 6 0 0 0 1.4 4.1z"/><path d="m157 111.1a4.8 4.8 0 0 1 1.9 3.1l-3.1.5a2.9 2.9 0 0 0 -.9-1.5 2.9 2.9 0 0 0 -4 .5 3.7 3.7 0 0 0 -.9 2.7 4 4 0 0 0 .9 2.7 2.9 2.9 0 0 0 2.3 1 2.5 2.5 0 0 0 1.7-.6 2 2 0 0 0 .9-1.5l3.1.5a5.1 5.1 0 0 1 -1.9 3.2 6.4 6.4 0 0 1 -3.8 1.2 5.9 5.9 0 0 1 -4.6-1.9 6.2 6.2 0 0 1 -1.8-4.6 6.4 6.4 0 0 1 1.8-4.7 6.2 6.2 0 0 1 4.6-1.8 6.4 6.4 0 0 1 3.8 1.2z"/><path d="m159.8 110.1h2v-3h1.4l1.8-.2v3.3h2.9v2.8h-2.9v5.8a1.5 1.5 0 0 0 .3 1 2.1 2.1 0 0 0 1.2.4h.7l.7-.2-.3 2.8-.9.2h-1a4.4 4.4 0 0 1 -2.9-1 3.9 3.9 0 0 1 -1-2.9v-6.1h-2z"/><path d="m171.2 111.7a6.2 6.2 0 0 1 4.6-1.8 6.3 6.3 0 0 1 4.6 1.8 6.4 6.4 0 0 1 1.8 4.7 6.2 6.2 0 0 1 -1.8 4.6 6 6 0 0 1 -4.6 1.9 5.9 5.9 0 0 1 -4.6-1.9 6.2 6.2 0 0 1 -1.8-4.6 6.4 6.4 0 0 1 1.8-4.7zm6.9 2a2.9 2.9 0 0 0 -2.3-1 2.6 2.6 0 0 0 -2.3 1 4.5 4.5 0 0 0 0 5.4 2.9 2.9 0 0 0 2.3 1 3.3 3.3 0 0 0 2.3-1 5 5 0 0 0 0-5.4z"/><path d="m195.1 111.7a7.2 7.2 0 0 1 1.5 4.7 6.6 6.6 0 0 1 -1.6 4.6 4.8 4.8 0 0 1 -3.9 1.9 4.6 4.6 0 0 1 -2.1-.5 3.4 3.4 0 0 1 -1.6-1.3v1.5h-3.2v-18.4h3.2v7.5a3.6 3.6 0 0 1 1.6-1.4 4.9 4.9 0 0 1 2.1-.4 5.2 5.2 0 0 1 4 1.8zm-2.5 2a2.8 2.8 0 0 0 -2.3-1 2.7 2.7 0 0 0 -2.2 1 4.6 4.6 0 0 0 -.8 2.7 4 4 0 0 0 .8 2.6 2.8 2.8 0 0 0 2.2 1.1 2.8 2.8 0 0 0 2.3-1.1 4 4 0 0 0 .8-2.6 4.6 4.6 0 0 0 -.8-2.7z"/><path d="m208.8 111.7a7.4 7.4 0 0 1 1.7 5v.6h-9.2a3.7 3.7 0 0 0 1.2 2.1 3.1 3.1 0 0 0 2.2.8 2.7 2.7 0 0 0 1.6-.4 2.3 2.3 0 0 0 1-1.2l3.1.6a5.6 5.6 0 0 1 -2.1 2.7 7.2 7.2 0 0 1 -8.4-.8 7 7 0 0 1 0-9.4 6.2 6.2 0 0 1 4.6-1.8 5.5 5.5 0 0 1 4.3 1.8zm-6.3 1.5a4 4 0 0 0 -1.1 1.9h5.8a3.1 3.1 0 0 0 -.9-1.9 2.9 2.9 0 0 0 -1.8-.7 3.2 3.2 0 0 0 -2 .7z"/><path d="m216.8 113.9a3.5 3.5 0 0 0 -.9 2.5v6.2h-3.2v-12.5h3.1v1.7a4 4 0 0 1 1.5-1.4 3.1 3.1 0 0 1 1.8-.5h.8l.2 3.1h-.8a3.7 3.7 0 0 0 -2.5.9z"/></g></svg>