<svg height="250" viewBox="0 0 300 250" width="300" xmlns="http://www.w3.org/2000/svg"><g fill="#fff"><path d="m271.5 217.9-15.8.2c.8 4.2 7.3 6.4 11.2 1.9l1.8 1.6 1.8 1.5a6.3 6.3 0 0 1 -1 1.2 10.9 10.9 0 0 1 -6.9 3 12 12 0 0 1 -5.6-.9 10.5 10.5 0 0 1 -6.5-8 11.1 11.1 0 0 1 5.7-12.3 10.3 10.3 0 0 1 11.4.8 10 10 0 0 1 3.8 6.7 18.3 18.3 0 0 1 .2 3.3 1.8 1.8 0 0 1 -.1 1zm-5.1-4.1a4.2 4.2 0 0 0 -1.8-3.5 6 6 0 0 0 -8 1.5 6.3 6.3 0 0 0 -1 2z"/><path d="m202.3 227.3a11.3 11.3 0 1 1 11.3-11.1 11.1 11.1 0 0 1 -11.3 11.1zm0-17.7a6.5 6.5 0 0 0 -.1 12.9 6.2 6.2 0 0 0 6.3-6.3 6.3 6.3 0 0 0 -6.2-6.6z"/><path d="m221.1 215.6-8-10.3h5.6a1.5 1.5 0 0 1 1.3.6l4.5 5.9 5-6.5h6.3l-8.2 10.4c2.7 3.7 5.5 7.3 8.4 11.1h-6.1c-.2 0-.5-.3-.7-.5l-4.7-6.4-.3-.3-5.3 7.2h-6.4z"/><path d="m190.8 194.6v4.5h-3.2a2.7 2.7 0 0 0 -2.7 2.4 6.6 6.6 0 0 0 -.1 1.4 17.6 17.6 0 0 0 0 2.3h5.1v4.8h-5.1v16.8h-5.3v-16.8h-3.8v-4.6c1.2-.2 2.4 0 3.8-.2v-2.1a14.7 14.7 0 0 1 .4-3.6 6.4 6.4 0 0 1 5.3-4.8 24.4 24.4 0 0 1 5.4-.2z"/><path d="m238.5 226.8c-.2-2.5-.1-27.9.1-28.9h5v7.2a8.2 8.2 0 0 0 2.7.2h2.5a13.7 13.7 0 0 1 .1 4.6c-1.7.3-3.4 0-5.2.2v16.7z"/><path d="m274.8 194.5h5c.2.9.2 30.7 0 32.2a10.5 10.5 0 0 1 -2.5.1h-2.6a2.8 2.8 0 0 1 -.1-.9v-31.1c0-.1.1-.2.2-.3z"/></g></svg>